<?xml version="1.0" standalone="no"?>
<!DOCTYPE svg PUBLIC "-//W3C//DTD SVG 20010904//EN"
 "http://www.w3.org/TR/2001/REC-SVG-20010904/DTD/svg10.dtd">
<svg version="1.0" xmlns="http://www.w3.org/2000/svg"
 width="2000.000000pt" height="2000.000000pt" viewBox="0 0 2000.000000 2000.000000"
 preserveAspectRatio="xMidYMid meet">

<g transform="translate(0.000000,2000.000000) scale(0.100000,-0.100000)"
fill="#000000" stroke="none">
<path d="M9465 19349 c-3335 -197 -6313 -2155 -7825 -5144 -588 -1162 -916
-2397 -991 -3725 -15 -268 -6 -971 15 -1220 70 -811 207 -1486 450 -2215 403
-1209 1008 -2262 1864 -3243 188 -216 630 -657 847 -846 2107 -1841 4824
-2639 7590 -2230 518 77 1086 216 1620 398 2336 794 4293 2518 5385 4741 792
1614 1101 3397 900 5190 -196 1735 -885 3393 -1983 4770 -401 503 -902 1010
-1402 1421 -576 472 -1264 908 -1926 1220 -1108 521 -2248 810 -3486 884 -199
12 -852 11 -1058 -1z m885 -739 c1489 -65 2857 -475 4110 -1233 954 -577 1789
-1335 2465 -2238 790 -1056 1335 -2304 1569 -3594 104 -574 142 -1054 133
-1685 -5 -400 -12 -510 -48 -835 -196 -1773 -947 -3444 -2154 -4790 -170 -190
-549 -566 -729 -723 -653 -570 -1372 -1034 -2152 -1387 -802 -364 -1690 -607
-2569 -704 -324 -36 -435 -42 -833 -48 -501 -7 -818 10 -1262 67 -2294 298
-4391 1532 -5787 3404 -1268 1700 -1860 3780 -1678 5896 143 1659 768 3242
1798 4560 360 459 827 941 1282 1321 1628 1362 3746 2081 5855 1989z"/>
<path d="M6360 15469 c-643 -73 -1207 -434 -1546 -989 -131 -216 -220 -459
-271 -745 -17 -95 -18 -290 -18 -3745 l0 -3645 22 -120 c84 -456 282 -829 609
-1145 343 -331 778 -528 1259 -569 166 -15 7003 -15 7181 -1 495 40 941 246
1295 599 348 347 556 794 598 1286 15 166 15 7024 0 7190 -33 392 -174 763
-406 1073 -78 104 -258 289 -363 372 -276 220 -586 358 -960 427 -90 17 -301
18 -3710 19 -1988 1 -3649 -2 -3690 -7z m7305 -755 c262 -45 506 -174 700
-368 180 -180 292 -383 358 -646 l21 -85 4 -3560 c2 -2591 0 -3585 -8 -3653
-71 -584 -525 -1049 -1110 -1137 -81 -13 -599 -15 -3619 -15 -3904 0 -3628 -5
-3838 65 -204 68 -367 169 -518 320 -153 152 -258 321 -324 520 -66 200 -61
-88 -61 3840 0 3949 -5 3631 66 3845 67 201 174 369 333 523 150 145 302 238
495 302 203 68 -100 63 3836 64 3197 1 3585 -1 3665 -15z"/>
<path d="M7543 12356 c-137 -44 -242 -162 -272 -304 -6 -29 -11 -133 -11 -232
l0 -179 -212 -3 c-194 -3 -218 -6 -271 -27 -111 -44 -208 -161 -236 -282 -6
-25 -11 -200 -11 -410 l0 -367 -202 -5 c-234 -5 -275 -14 -365 -81 -66 -48
-113 -112 -140 -190 -15 -44 -18 -86 -18 -291 0 -228 1 -243 23 -298 33 -81
116 -168 200 -209 l66 -33 218 -3 217 -4 3 -391 c3 -383 4 -393 26 -450 44
-108 122 -185 233 -230 48 -19 78 -22 262 -25 l207 -4 0 -182 c0 -250 22 -329
120 -427 55 -55 123 -92 198 -108 68 -14 405 -14 474 0 151 32 273 151 308
301 6 26 10 330 10 781 l0 737 1640 0 1640 0 2 -768 3 -767 33 -67 c41 -84
128 -167 209 -199 53 -21 78 -23 275 -27 176 -3 228 -1 279 13 121 31 210 103
263 215 l31 65 3 218 3 217 178 0 c98 0 203 5 232 10 142 27 256 126 302 264
15 43 17 102 17 438 l0 388 199 0 c170 0 208 3 262 20 113 35 206 123 250 237
19 50 23 82 27 243 2 105 0 214 -6 252 -30 189 -161 322 -345 349 -34 5 -135
9 -224 9 l-162 0 -3 403 c-3 394 -3 403 -26 451 -48 105 -137 184 -244 218
-50 15 -93 18 -258 18 l-199 0 -3 223 c-3 206 -5 226 -26 271 -48 105 -137
184 -244 218 -51 15 -94 18 -278 18 -190 0 -226 -3 -281 -20 -120 -38 -211
-129 -249 -249 -19 -61 -20 -90 -20 -807 l0 -744 -1640 0 -1639 0 -3 758 -3
757 -23 58 c-33 81 -116 168 -200 209 l-66 33 -246 2 c-183 2 -256 -1 -287
-11z m445 -1273 l2 -913 2015 0 2015 0 2 913 3 912 175 0 175 0 3 -362 2 -363
363 -2 362 -3 3 -1272 2 -1273 -365 0 -365 0 0 -365 0 -365 -177 2 -178 3 -3
908 -2 907 -2015 0 -2015 0 0 -910 0 -910 -175 0 -175 0 0 365 0 365 -365 0
-365 0 2 1273 3 1272 363 3 362 2 0 358 c0 197 3 362 7 366 4 3 81 5 172 4
l166 -3 3 -912z m-1458 -1093 l0 -180 -172 2 -173 3 -3 178 -2 177 175 0 175
0 0 -180z m7305 0 l0 -175 -177 -3 -178 -2 0 180 0 180 178 -2 177 -3 0 -175z"/>
</g>
</svg>
